<svg width="2745" height="1574" viewBox="0 0 2745 1574" fill="none" xmlns="http://www.w3.org/2000/svg">
<path d="M829.13 1250.67C821.06 1269.57 812.97 1288.46 804.91 1307.36C801.79 1314.68 798.42 1321.91 795.69 1329.38C793.71 1334.81 789.67 1334.58 785.23 1334.68C781.08 1334.78 778.65 1333.42 776.86 1329.38C764.2 1300.89 751.32 1272.5 738.4 1244.12C736.5 1239.93 735.2 1235.34 731.61 1232.08C731.21 1227.33 729.03 1223.22 727.09 1218.97C717.99 1199.03 709.08 1179 699.94 1159.07C691.08 1139.74 682.31 1120.36 672.95 1101.27C666.86 1088.84 666.29 1089.08 654.69 1096.08C636.71 1106.91 619.98 1119.36 604.42 1133.47C588.93 1147.51 572.78 1160.84 558.68 1176.36C545.81 1188.43 533 1200.56 520.06 1212.56C511.76 1220.26 503.43 1227.95 494.83 1235.31C481.47 1246.73 465.47 1252.83 448.32 1254.12C418.29 1256.38 388.41 1255.1 359.65 1244.51C353.65 1242.3 347.93 1239.72 343.64 1234.73C337.56 1227.65 337.31 1220.25 343.33 1213.06C345.66 1210.28 348.36 1207.56 351.43 1205.71C360.83 1200.03 370.01 1193.99 379.81 1188.94C392.16 1182.57 405.1 1179.52 418.97 1178.4C445.09 1176.29 467.52 1165.12 486.74 1147.5C490.4 1144.14 493.56 1140.24 496.95 1136.59C497.24 1136.44 497.62 1136.35 497.82 1136.12C521.4 1108.76 536.86 1076.26 555.22 1045.59C556.96 1042.68 555.73 1040.67 553.72 1038.59C549.6 1034.31 545.74 1037.05 542 1039.03C519.43 1050.98 496.74 1062.74 474.45 1075.2C467.87 1078.88 460.49 1081.38 454.88 1086.76C439.51 1093.21 425.48 1102.21 410.8 1109.97C384.87 1123.67 360.38 1139.84 335.18 1154.78C320.56 1163.44 305.41 1171.19 289.41 1177.06C268.4 1184.78 246.94 1184.34 225.48 1179.48C203.9 1174.59 183.97 1165.21 164.16 1155.69C157.94 1152.7 152.98 1147.58 153.36 1140.13C153.72 1133.09 157.59 1127.46 164.36 1124.66C190.23 1113.94 216.12 1103.74 244.99 1104.18C277.79 1104.68 306.05 1092.72 330.07 1070.5C353.19 1049.11 372.03 1024.1 390.66 998.92C395 993.05 399.12 987.01 403.34 981.04C418.64 963.74 438.39 953.48 460.08 947.39C500.01 936.18 540.28 926.22 581.04 918.37C604.85 913.78 626.82 905.23 645.85 889.43C660.4 877.34 671.77 862.77 682.3 847.41C695.86 827.63 706.99 806.39 718.39 785.34C722.79 777.21 728.8 769.84 730.93 760.55C731.16 760.44 731.44 760.38 731.62 760.21C731.73 760.11 731.69 759.85 731.72 759.66C731.44 759.94 731.16 760.22 730.88 760.5C726.66 759.88 723.08 762.03 719.42 763.41C692.97 773.35 666.26 782.51 638.86 789.49C610.23 796.78 581.19 801.59 551.81 805.03C537.92 806.66 523.98 805.9 510.12 808C500.7 809.43 490.81 808.76 481.22 807.95C461.75 806.31 442.18 805.61 422.83 802.71C372.21 794.94 323.58 780.55 276.81 759.64C212.45 730.86 154.6 692 100.34 647.34C77.6799 628.69 56.0499 608.91 34.9199 588.62C18.6099 572.96 5.67986 554.87 1.73986 531.77C0.909864 526.92 0.119864 522.08 1.59986 516.99C6.77986 517.39 10.7799 519.85 14.9199 521.84C56.0599 541.61 96.9899 561.82 138.35 581.11C207.24 613.24 277.53 641.7 351.82 659.12C380.33 665.81 409.08 670.66 438.34 673.15C472.5 676.06 506.11 673.81 539.51 666.76C544.69 665.67 549.71 663.81 554.81 662.31C565.85 661.13 576.1 657.03 586.1 652.74C617.09 639.45 648.53 628.7 682.57 625.79C705.62 623.82 728.45 624.21 751.16 627.26C773.19 630.22 794.93 635.11 816.18 641.9C824.5 644.55 833.11 645.6 841.78 643.8C849.27 642.24 856.53 639.84 863.7 637.12C879.87 630.98 896.03 624.84 912.29 618.98C943.31 607.81 974.99 599.05 1007.75 594.9C1031.44 591.9 1055.05 588.36 1078.86 586.22C1100.65 584.26 1122.31 580.98 1144.07 578.72C1167.49 576.28 1190.88 573.69 1214.26 570.85C1246.2 566.96 1278.03 562.43 1309.67 556.55C1339.38 551.02 1368.94 544.72 1397.86 535.89C1443.34 522 1485.33 500.43 1526.1 476.34C1551.02 461.61 1575.79 446.64 1601.83 433.89C1631.43 419.39 1660.98 404.75 1689.92 388.95C1705.69 380.35 1721.27 371.42 1735.82 360.81C1754.94 346.85 1771.5 329.91 1789.56 314.72C1795.63 309.62 1802.64 305.45 1807.34 298.78C1822.48 289 1835.81 276.86 1850.14 266.02C1896.71 230.78 1945.32 198.73 1997.01 171.51C2012.38 163.41 2023.42 151.52 2031.85 136.79C2054.18 97.7397 2079 60.2497 2103.01 22.2397C2109.5 11.9697 2118.82 6.43975 2129.14 1.55975C2132.4 0.0197528 2134.67 0.239755 2136.68 3.49976C2141.62 11.5098 2145.64 19.8598 2146.85 29.3098C2149.47 49.7598 2151.73 70.2397 2153.28 90.7997C2153.35 91.7197 2153.83 92.6097 2154.39 94.3497C2159.62 92.5397 2162.4 88.3997 2164.95 84.4297C2172.15 73.2298 2179.05 61.8298 2186.04 50.4998C2191.5 41.6498 2197.94 33.6298 2205.94 26.9398C2207.98 25.2298 2210.1 23.4097 2212.84 23.1697C2216.94 22.8097 2221.32 26.7798 2221.07 31.1198C2220.61 39.0798 2219.76 47.0298 2218.8 54.9398C2216.47 74.0698 2213.75 93.1598 2211.64 112.31C2209.74 129.49 2207.85 146.72 2207.03 163.97C2206.28 179.71 2211.11 194.06 2221.64 206.19C2222.92 207.66 2224.13 209.42 2224.7 211.25C2233.66 240.18 2254.88 256.45 2281.73 267.22C2319.15 282.23 2357.42 294.72 2395.94 306.52C2405.48 309.44 2414.92 312.74 2424.34 316.04C2427.46 317.13 2430.6 318.44 2433.34 320.25C2439.38 324.23 2440.92 329.03 2438.35 335.8C2437.06 339.2 2435.39 342.58 2433.26 345.52C2416.44 368.71 2402.51 393.85 2385.04 416.61C2380.39 422.66 2374.18 427.45 2370.78 434.47C2369.05 435.44 2367.16 436.23 2365.6 437.42C2347.62 451.13 2326.83 455.61 2304.78 456.4C2284.44 457.12 2264.27 453.73 2243.95 454.28C2243.62 454.29 2243.28 454.27 2242.95 454.23C2221.14 451.74 2199.28 450.35 2177.31 450.38C2151.43 450.42 2126.4 454.74 2102.34 464.35C2075.64 475 2052.41 490.8 2032.86 511.85C2024.93 520.39 2022.38 530.91 2023.48 542.37C2025.28 561.19 2027.13 580.01 2028.94 598.83C2030.34 613.36 2031.75 627.9 2033.07 642.44C2033.38 645.91 2034.9 647.94 2038.45 648.51C2040.74 648.88 2042.95 649.72 2045.23 650.14C2100.06 660.24 2154.15 673.98 2209.2 683C2227.63 686.02 2235.25 694.02 2238.48 712.12C2239.06 715.37 2238.98 718.75 2238.99 722.07C2239.04 740.07 2239.13 758.06 2238.97 776.06C2238.92 781.28 2240.58 783.96 2246.14 784.66C2254.06 785.66 2261.73 788.13 2269.17 790.98C2278.94 794.72 2286.69 800.81 2288.81 811.77C2290.07 818.27 2291.58 824.8 2290.89 831.55C2289.28 847.12 2289.88 862.83 2288.56 878.36C2286.59 901.51 2286.03 924.75 2283.33 947.87C2281.1 966.98 2279.11 986.1 2275.9 1005.08C2273.82 1017.39 2270.85 1029.5 2267.49 1041.12C2269.8 1042.81 2271.51 1042.58 2273.13 1042.37C2298.67 1039.06 2324.16 1038.8 2349.51 1043.89C2353.1 1044.61 2355.03 1043.37 2357.01 1040.66C2361.72 1034.22 2366.62 1027.92 2371.57 1021.66C2383.77 1006.23 2395.85 990.34 2413.65 981.07C2431.97 971.53 2450.89 970.69 2468.08 984.1C2481.21 994.35 2487.05 1009.37 2492.08 1024.68C2493.03 1027.57 2491.5 1029.02 2489.4 1030.35C2482.93 1034.44 2476.47 1038.55 2470.02 1042.65C2454 1052.83 2457.31 1054.05 2446.53 1037.66C2441.06 1029.35 2435.91 1020.85 2427.11 1015.2C2414.92 1007.38 2407.87 1007.05 2395.85 1014.6C2386.03 1020.77 2379.08 1029.68 2372.24 1038.7C2365.13 1048.08 2365.34 1047.87 2376.47 1052.8C2391.19 1059.33 2404.52 1068.05 2414.96 1080.57C2429.63 1098.17 2434.69 1118.79 2432.85 1141.18C2431.14 1161.94 2422.59 1179.73 2406.69 1193.32C2391.78 1206.06 2374.29 1213.93 2355.25 1218.68C2343.91 1221.51 2332.37 1223.12 2320.87 1224.06C2309.35 1225 2297.69 1225.03 2286.02 1223.45C2272.09 1221.56 2258.6 1218.3 2245.44 1213.58C2241.64 1212.22 2239.06 1212.93 2236.76 1215.98C2233.16 1220.76 2229.33 1225.38 2225.94 1230.3C2218.39 1241.23 2219.9 1248.62 2230.79 1256.48C2239.32 1262.64 2248.99 1266.06 2259.04 1268.63C2280.01 1274 2301.67 1274.89 2322.93 1278.46C2346.23 1282.37 2369.36 1286.76 2391.21 1296.19C2395.42 1298.16 2399.67 1300.06 2403.84 1302.11C2429.03 1314.49 2440.88 1335.86 2442.51 1362.82C2443.69 1382.44 2434.58 1398.83 2421.49 1412.9C2404.63 1431.02 2383.68 1443.01 2361.01 1452.29C2322.1 1468.22 2281.41 1472.39 2239.86 1470.09C2231.6 1469.63 2223.38 1468.18 2215.05 1468.53C2213.89 1467.13 2212.3 1466.89 2210.61 1466.68C2183.29 1463.32 2157.34 1455.74 2133.38 1441.84C2114.75 1431.03 2098.35 1417.62 2085.14 1400.58C2071.84 1383.42 2061.52 1363.93 2042.93 1348.58C2061.46 1348.58 2078.03 1349.2 2094.54 1348.42C2113.39 1347.52 2127.18 1356.04 2138.45 1369.79C2148.14 1381.61 2157.12 1394.01 2166.71 1405.91C2186.12 1430.01 2210.45 1446.36 2241.2 1452.33C2266.22 1457.77 2291.29 1458.8 2316.1 1451.67C2330.32 1447.58 2343.27 1440.73 2353.17 1429.25C2370.6 1409.04 2366.55 1370.18 2335.01 1360.86C2330.19 1356.99 2324.27 1355.95 2318.51 1354.64C2295.48 1349.42 2271.8 1348.7 2248.61 1344.55C2234.2 1341.97 2219.9 1339.17 2206.61 1332.51C2184.93 1321.64 2178.65 1303.87 2184.78 1280.73C2189.73 1262.06 2200.52 1246.34 2211.73 1230.96C2215.84 1225.31 2220.17 1219.83 2224.3 1214.19C2228.81 1208.02 2228.53 1207.03 2221.65 1202.82C2221.08 1202.47 2220.46 1202.21 2219.89 1201.87C2191.71 1185.02 2175.44 1161.29 2177.18 1127.35C2177.41 1122.81 2175.57 1119.96 2172.4 1117.08C2165.14 1110.48 2161.98 1101.74 2161 1092.25C2158.17 1064.75 2165.53 1039.84 2182.61 1018.47C2192.59 1005.98 2197.68 992.09 2200.83 976.98C2201.51 973.73 2202.27 970.5 2202.85 967.24C2203.3 964.67 2202.19 962.69 2200 961.35C2197.57 959.86 2195.51 960.7 2193.79 962.6C2191.56 965.07 2189.29 967.52 2187.29 970.17C2180.46 979.21 2173.4 988.06 2164.96 995.68C2156.41 1003.41 2146.81 1009.3 2135.08 1010.51C2125.85 1011.47 2120.46 1008.26 2117.15 999.69C2113.55 990.37 2110.95 980.83 2110.84 970.62C2110.63 951.29 2115.44 933.14 2122.6 915.43C2124.7 910.25 2126.69 905.03 2128.66 899.99C2125.62 897.78 2122.97 898.61 2120.41 899.09C2114.22 900.26 2108.05 901.54 2101.86 902.79C2011.74 920.89 1921.8 939.87 1831.3 956.02C1819.96 958.04 1808.45 961.05 1797.19 954.69C1789.57 950.38 1782.88 945.83 1778.18 937.79C1767.31 919.21 1753.09 903.81 1730.72 899.54C1714.49 896.44 1698.24 897.92 1682.44 902.97C1664.63 908.66 1646.45 911.66 1627.75 913.08C1617.36 913.87 1607.27 912.92 1597.03 912.75C1582.66 912.51 1568.61 910.03 1554.62 907.28C1524.23 901.3 1494.71 892.06 1465.41 882.21C1433.72 871.56 1401.16 865.13 1367.96 862.9C1334.36 860.65 1300.83 862.98 1267.66 869.25C1234.91 875.44 1203.05 884.67 1171.9 896.53C1141.22 908.22 1112.19 922.44 1087.35 944.58C1072.23 958.06 1056.47 970.95 1039.46 982.08C1002.59 1006.19 964.16 1027.34 922.62 1042.43C916.29 1044.73 916.27 1045.17 920.04 1050.44C930.62 1065.2 928.62 1078.73 914.24 1090.4C895.54 1105.57 881.57 1124.19 872.5 1146.62C864.52 1166.36 855.78 1185.79 847.55 1205.42C841.3 1220.49 835.28 1235.61 829.13 1250.67ZM2327.68 1208.88C2344.01 1210.38 2356.09 1197.56 2359.93 1186.52C2363.27 1176.92 2363.86 1167.06 2362.16 1157.02C2357.97 1132.35 2348.12 1109.89 2334.93 1088.91C2326.72 1075.85 2316.59 1064.31 2302.4 1057.27C2279.17 1045.74 2253.87 1057.75 2249.6 1082.98C2247.84 1093.39 2247.99 1104.22 2250.19 1114.78C2255.65 1140.97 2266.09 1164.96 2283.7 1185.21C2294.94 1198.14 2307.86 1209.28 2327.68 1208.88ZM822.41 1237.53C846.76 1175.33 869.15 1112.26 898.67 1052.49C896.21 1050.82 895.04 1051.77 893.82 1052.11C870.46 1058.68 846.88 1064.13 822.71 1066.9C806.9 1068.71 791.1 1070.86 775.46 1073.75C771.41 1074.5 764.99 1071.63 763.3 1077.69C762.1 1082 763.06 1086.93 763.22 1091.58C763.26 1092.87 763.97 1094.13 764.24 1095.42C767.2 1109.2 773.4 1121.77 778.65 1134.71C791.8 1167.07 804.72 1199.52 817.81 1231.91C818.63 1233.95 818.99 1236.56 822.41 1237.53Z" fill="#1B52B8"/>
<path d="M829.13 1250.67C835.27 1235.6 841.29 1220.49 847.58 1205.48C855.81 1185.84 864.55 1166.41 872.53 1146.68C881.6 1124.25 895.57 1105.63 914.27 1090.46C928.65 1078.79 930.65 1065.27 920.07 1050.5C916.29 1045.23 916.32 1044.79 922.65 1042.49C964.2 1027.39 1002.62 1006.25 1039.49 982.14C1056.51 971.01 1072.26 958.12 1087.38 944.64C1112.21 922.49 1141.25 908.27 1171.93 896.59C1203.08 884.72 1234.94 875.49 1267.69 869.31C1300.86 863.04 1334.39 860.71 1367.99 862.96C1401.19 865.19 1433.74 871.61 1465.44 882.27C1494.74 892.12 1524.26 901.36 1554.65 907.34C1568.64 910.09 1582.69 912.57 1597.06 912.81C1607.3 912.98 1617.39 913.93 1627.78 913.14C1646.48 911.72 1664.66 908.72 1682.47 903.03C1698.27 897.98 1714.52 896.51 1730.75 899.6C1753.11 903.87 1767.34 919.27 1778.21 937.85C1782.91 945.88 1789.6 950.44 1797.22 954.75C1808.48 961.11 1819.99 958.1 1831.33 956.08C1921.83 939.93 2011.77 920.94 2101.89 902.85C2108.07 901.61 2114.24 900.32 2120.44 899.15C2123 898.67 2125.65 897.84 2128.69 900.05C2126.71 905.09 2124.72 910.31 2122.63 915.49C2115.47 933.2 2110.66 951.35 2110.87 970.68C2110.98 980.89 2113.58 990.44 2117.18 999.75C2120.49 1008.32 2125.88 1011.52 2135.11 1010.57C2146.84 1009.36 2156.44 1003.46 2164.99 995.74C2173.42 988.12 2180.49 979.28 2187.32 970.23C2189.32 967.58 2191.59 965.13 2193.82 962.66C2195.54 960.75 2197.6 959.92 2200.03 961.41C2202.23 962.75 2203.34 964.73 2202.88 967.3C2202.3 970.56 2201.54 973.8 2200.86 977.04C2197.71 992.15 2192.62 1006.05 2182.64 1018.53C2165.56 1039.9 2158.19 1064.81 2161.03 1092.31C2162.01 1101.8 2165.17 1110.54 2172.43 1117.14C2175.6 1120.02 2177.44 1122.87 2177.21 1127.41C2175.47 1161.35 2191.74 1185.08 2219.92 1201.93C2220.49 1202.27 2221.11 1202.53 2221.68 1202.88C2228.56 1207.09 2228.84 1208.08 2224.33 1214.25C2220.21 1219.89 2215.88 1225.37 2211.76 1231.02C2200.55 1246.4 2189.76 1262.12 2184.81 1280.79C2178.68 1303.92 2184.96 1321.7 2206.64 1332.57C2219.93 1339.23 2234.23 1342.03 2248.64 1344.61C2271.83 1348.76 2295.51 1349.48 2318.54 1354.7C2324.31 1356.01 2330.22 1357.05 2335.04 1360.92C2334.66 1362.16 2334.61 1363.7 2333.83 1364.6C2327.99 1371.34 2322.21 1378.16 2316.02 1384.57C2296 1405.28 2274.09 1423.91 2252.12 1442.48C2248.36 1445.66 2243.64 1447.73 2241.23 1452.39C2210.48 1446.42 2186.15 1430.07 2166.74 1405.97C2157.15 1394.07 2148.16 1381.67 2138.48 1369.85C2127.21 1356.1 2113.42 1347.58 2094.57 1348.48C2078.06 1349.26 2061.49 1348.64 2042.96 1348.64C2061.55 1363.99 2071.87 1383.48 2085.17 1400.64C2098.38 1417.68 2114.78 1431.09 2133.41 1441.9C2157.37 1455.8 2183.32 1463.38 2210.64 1466.74C2212.33 1466.95 2213.92 1467.19 2215.08 1468.59C2211.51 1475.17 2204.6 1477.73 2198.84 1481.39C2177.51 1494.94 2155.84 1508.02 2132.87 1518.65C2089.05 1538.92 2043.78 1554.96 1996.32 1564.46C1951.03 1573.52 1905.18 1574.11 1859.36 1572.33C1835.29 1571.39 1811.38 1567.02 1787.72 1561.95C1733.31 1550.28 1682.23 1529.81 1633.82 1502.79C1602.77 1485.46 1573.77 1464.94 1545.81 1442.84C1523.41 1425.13 1499.43 1409.49 1474.99 1394.65C1446.24 1377.2 1416.58 1361.51 1385.88 1347.72C1378.8 1344.54 1370.27 1343.63 1364.99 1336.84C1366.11 1334.84 1368.26 1334.74 1370.11 1334.11C1385.79 1328.81 1397.53 1318.12 1408.32 1306.15C1410.38 1303.87 1412.47 1301.19 1410.38 1298.17C1408.28 1295.14 1405.58 1297.27 1403.3 1298.46C1383.82 1308.7 1359.64 1299.39 1346.77 1282.24C1337.05 1269.27 1332.96 1254.36 1332.94 1238.31C1332.87 1183.02 1332.9 1127.73 1332.89 1072.44C1332.89 1071.11 1332.98 1069.77 1332.9 1068.44C1332.64 1064.2 1334.58 1062.45 1338.82 1062.51C1348.14 1062.64 1357.51 1062 1366.79 1062.67C1378.04 1063.48 1387.8 1061.86 1394.96 1052.01C1396.84 1049.42 1400.17 1047.91 1402.59 1045.65C1404.14 1044.2 1406.69 1043.08 1405.76 1039.86C1402.79 1038.06 1399.41 1038.93 1396.21 1038.91C1377.89 1038.82 1359.57 1038.93 1341.26 1038.83C1333.11 1038.78 1332.96 1038.63 1332.95 1030.33C1332.94 1010.68 1333.14 991.03 1333.09 971.38C1333.08 968.65 1334.46 965.36 1330.53 962.68C1290.27 992.23 1249.86 1021.88 1209.48 1051.58C1205.76 1054.32 1202.29 1057.41 1198.73 1060.37C1198.56 1060.51 1198.56 1060.97 1198.61 1061.25C1198.85 1062.56 1199.57 1061 1198.95 1062.18C1199.6 1062.29 1200.26 1062.48 1200.91 1062.49C1214.57 1062.52 1228.22 1062.5 1241.88 1062.53C1252.72 1062.55 1252.72 1062.58 1252.77 1073.49C1252.78 1076.82 1252.77 1080.15 1252.77 1083.48C1252.77 1138.1 1252.73 1192.73 1252.84 1247.35C1252.86 1254.96 1252.75 1262.53 1254.34 1270.18C1256.87 1282.37 1261.57 1293.57 1267.19 1304.51C1243.11 1298.7 1219.22 1292.1 1194.87 1287.46C1192.23 1286.96 1189.64 1286.71 1187 1286.61C1187.69 1282.52 1187.38 1277.81 1183.93 1275.97C1180.03 1273.89 1178.49 1279.39 1175.62 1281.12C1174.79 1281.62 1173.98 1282.14 1173.15 1282.65C1172.15 1282.64 1171.14 1282.76 1170.17 1282.6C1146.13 1278.6 1122.12 1274.5 1097.8 1272.2C1078.45 1270.37 1059.24 1266.86 1039.76 1266.82C1036.08 1266.81 1032.19 1262.94 1028.59 1266.96C1014.61 1247.85 1006.8 1226.06 1001.01 1203.4C999.7 1198.3 1002.9 1196.33 1007.02 1194.76C1020.7 1189.58 1034.33 1184.26 1047.97 1178.95C1094.45 1160.86 1140.92 1142.73 1187.42 1124.66C1196.39 1121.18 1196.76 1120.41 1192.69 1111.7C1184.06 1093.23 1171.29 1078.24 1155.21 1065.75C1128.87 1045.29 1098.81 1036.24 1065.91 1037.15C1056.46 1037.41 1046.76 1038.5 1037.29 1040.57C996.12 1049.55 965.05 1071.92 945.67 1109.54C936.92 1126.53 932.89 1144.93 930.6 1163.98C928.11 1184.7 929.36 1204.99 932.6 1225.44C934.49 1237.35 939.17 1248.4 941.66 1260.08C932.38 1260.72 923.25 1260.79 913.94 1259.04C904.9 1257.34 895.48 1257.71 886.26 1257.08C870.73 1256.01 855.42 1253.09 839.88 1252.59C836.15 1252.46 832.92 1250.09 829.13 1250.67ZM1932.6 1083.57C1930.59 1081.34 1931.09 1079.63 1931.08 1078.06C1931.03 1067.73 1930.88 1057.4 1931.13 1047.07C1931.24 1042.42 1929.52 1039.55 1925.31 1037.74C1920.94 1035.86 1918.45 1039.01 1915.63 1041.1C1884.8 1064.08 1851.87 1083.31 1815.98 1097.32C1813.51 1098.28 1811.11 1099.51 1808.83 1100.86C1806.38 1102.31 1806.8 1104.86 1807.07 1107.15C1807.36 1109.6 1809.24 1110.24 1811.38 1110.41C1813.04 1110.54 1814.73 1110.55 1816.35 1110.88C1836.23 1114.89 1848.94 1128.48 1849.03 1146.85C1849.24 1189.16 1849.4 1231.49 1848.86 1273.79C1848.67 1288.58 1845.42 1302.96 1833.17 1313.36C1826.95 1318.65 1819.57 1321.67 1811.89 1323.98C1808.61 1324.97 1806.6 1326.29 1806.9 1330.12C1807.24 1334.51 1810.3 1334.15 1813.34 1334.43C1821.39 1335.17 1829.18 1332.66 1837.18 1332.73C1852.17 1332.86 1867.17 1332.46 1882.16 1332.73C1905.77 1333.16 1929.43 1331.24 1952.99 1334.27C1956.27 1334.69 1959.65 1334.39 1962.98 1334.32C1966.65 1334.24 1967.04 1331.71 1967.05 1328.79C1967.06 1325.36 1964.6 1324.17 1962.07 1323.39C1956.84 1321.8 1952.48 1319.05 1948.52 1315.29C1935.49 1302.9 1931.34 1286.76 1931.18 1269.93C1930.67 1215.29 1931.1 1160.64 1930.97 1106C1930.96 1100.8 1932.55 1097.07 1936.7 1094.11C1951.51 1083.57 1967.3 1075.18 1985.63 1073C1999.21 1071.39 2018.66 1077.61 2026.82 1093.69C2034.67 1109.17 2038.33 1125.6 2038.83 1142.63C2039.62 1169.91 2038.81 1197.19 2037.31 1224.45C2036.18 1245.02 2038.56 1265.68 2035.24 1286.23C2032.45 1303.54 2023.35 1315.46 2007.36 1322.29C2005.53 1323.07 2003.57 1323.56 2001.79 1324.44C1999.24 1325.7 1999.13 1328.04 1999.63 1330.46C2000.08 1332.66 2001.51 1334.04 2003.72 1334.18C2006.71 1334.38 2009.78 1334.74 2012.69 1334.25C2024.26 1332.34 2035.91 1332.53 2047.54 1332.73C2080.47 1333.3 2113.45 1331.03 2146.35 1334.28C2149.98 1334.64 2153.67 1334.37 2157.33 1334.25C2159.74 1334.17 2160.81 1332.61 2160.88 1330.31C2160.94 1328.33 2161.18 1326.11 2158.9 1325.16C2156.77 1324.27 2154.48 1323.75 2152.26 1323.07C2134.81 1317.78 2125.5 1304.97 2121.53 1288.14C2118.64 1275.88 2117.32 1263.25 2117.29 1250.61C2117.17 1206.3 2117.22 1161.98 2117.22 1117.66C2117.22 1110 2116.82 1102.43 2114.84 1094.91C2108.59 1071.11 2095.13 1054.08 2071.39 1045.41C2048.57 1037.08 2025.83 1038.33 2003.01 1044.35C1976.42 1051.41 1953.57 1065.41 1932.6 1083.57ZM1412.67 1061.58C1415.1 1063.31 1417.8 1062.41 1420.27 1062.44C1433.26 1062.56 1446.26 1062.41 1459.25 1062.53C1466.8 1062.6 1466.81 1062.76 1467.02 1070.54C1467.08 1072.87 1467.03 1075.2 1467.03 1077.54C1467.03 1130.52 1467.03 1183.5 1467.03 1236.47C1467.03 1246.77 1467.01 1257.03 1468.87 1267.28C1473.06 1290.36 1482.39 1310.32 1501.79 1324.54C1519.55 1337.55 1539.45 1341.09 1561.14 1339.25C1580.54 1337.6 1596.97 1330.18 1611.83 1318.16C1617.36 1313.68 1621.32 1307.95 1625.75 1302.56C1626.89 1301.17 1627.23 1299.46 1626.08 1297.97C1624.98 1296.54 1623.25 1296.17 1621.57 1296.75C1619.69 1297.4 1617.91 1298.33 1616.07 1299.1C1611.45 1301.03 1606.79 1302.63 1601.64 1302.56C1582.18 1302.32 1568.12 1292.65 1558.19 1276.8C1549.65 1263.17 1547.3 1247.58 1547.23 1231.82C1547.01 1179.18 1547.15 1126.53 1547.15 1073.89C1547.15 1072.22 1547.27 1070.55 1547.14 1068.89C1546.79 1064.18 1548.9 1062.37 1553.59 1062.45C1564.58 1062.63 1575.61 1061.95 1586.56 1062.68C1594.53 1063.21 1600.9 1060.98 1606.33 1055.58C1611.07 1050.86 1617.2 1047.33 1620.12 1040.93C1616.68 1037.99 1613.21 1038.9 1609.97 1038.88C1596.31 1038.79 1582.65 1038.84 1568.99 1038.84C1563.99 1038.84 1558.98 1038.63 1554 1038.89C1548.74 1039.16 1546.83 1036.8 1547.13 1031.77C1547.37 1027.79 1546.69 1023.69 1547.33 1019.79C1549.92 1003.89 1548.38 987.89 1548.82 971.94C1548.9 969.1 1549.71 966 1547.66 963.41C1540.44 965.79 1423.22 1051.04 1412.67 1061.58ZM1759.33 1054.72C1759.81 1054.72 1760.28 1054.73 1760.76 1054.73C1760.76 1052.73 1760.64 1050.72 1760.78 1048.74C1761.14 1043.84 1759 1040.75 1754.77 1038.25C1750.26 1035.59 1748.12 1038.82 1745.28 1040.93C1713.3 1064.63 1678.82 1083.87 1641.87 1098.68C1640.94 1099.05 1640 1099.37 1639.07 1099.73C1636.23 1100.81 1634.82 1102.75 1635.28 1105.9C1635.68 1108.6 1637.29 1109.98 1639.89 1110.34C1641.21 1110.52 1642.6 1110.41 1643.85 1110.79C1651.45 1113.1 1659.27 1114.68 1665.65 1120.11C1676 1128.91 1678.73 1140.65 1678.79 1153.27C1678.96 1190.58 1678.97 1227.9 1678.74 1265.21C1678.69 1272.47 1677.75 1279.81 1676.41 1286.96C1674.25 1298.42 1668.72 1308.05 1659.39 1315.44C1653.75 1319.91 1647.34 1322.57 1640.55 1324.21C1636.59 1325.17 1634.59 1326.65 1635.25 1330.86C1635.95 1335.33 1639.45 1334.51 1642.24 1334.38C1650.53 1334.01 1658.8 1332.95 1667.08 1332.9C1699.39 1332.71 1731.71 1332.8 1764.02 1332.83C1769 1332.83 1773.93 1332.92 1778.91 1333.93C1783.08 1334.78 1787.53 1334.34 1791.85 1334.31C1793.99 1334.3 1795.75 1333.31 1796.37 1331.1C1797.07 1328.58 1796.32 1326.48 1794.02 1325.12C1792.88 1324.44 1791.67 1323.85 1790.42 1323.4C1774.3 1317.51 1766.99 1304.54 1763.06 1289.03C1760.2 1277.73 1758.92 1266.23 1758.96 1254.51C1759.18 1187.89 1759.23 1121.3 1759.33 1054.72ZM1712.93 912.3C1689.97 910.6 1672.49 926.16 1667.81 945C1666.18 951.56 1666.74 958.23 1666.95 964.84C1667.25 974.47 1670.84 982.94 1677.45 989.99C1690.62 1004.03 1706.81 1007.82 1725.46 1004.75C1765.39 998.19 1770.58 955.54 1756.67 933.07C1746.86 917.23 1731.85 912.08 1712.93 912.3Z" fill="#93D5FF"/>
<path d="M2391.22 1296.21C2369.37 1286.78 2346.24 1282.4 2322.94 1278.48C2301.68 1274.91 2280.02 1274.01 2259.05 1268.65C2249 1266.08 2239.34 1262.65 2230.8 1256.5C2219.91 1248.64 2218.39 1241.26 2225.95 1230.32C2229.35 1225.4 2233.18 1220.78 2236.77 1216C2239.07 1212.95 2241.65 1212.23 2245.45 1213.6C2258.61 1218.32 2272.09 1221.58 2286.03 1223.47C2297.71 1225.05 2309.36 1225.02 2320.88 1224.08C2332.38 1223.14 2343.92 1221.53 2355.26 1218.7C2374.3 1213.95 2391.8 1206.08 2406.7 1193.34C2422.6 1179.75 2431.15 1161.96 2432.86 1141.2C2434.7 1118.81 2429.64 1098.19 2414.97 1080.59C2404.53 1068.07 2391.2 1059.35 2376.48 1052.82C2365.35 1047.88 2365.14 1048.1 2372.25 1038.72C2379.09 1029.69 2386.03 1020.78 2395.86 1014.62C2407.89 1007.07 2414.94 1007.4 2427.12 1015.22C2435.92 1020.87 2441.07 1029.36 2446.54 1037.68C2457.32 1054.06 2454.01 1052.85 2470.03 1042.67C2476.49 1038.57 2482.95 1034.46 2489.41 1030.37C2491.51 1029.04 2493.04 1027.6 2492.09 1024.7C2487.06 1009.4 2481.23 994.37 2468.09 984.12C2450.89 970.71 2431.98 971.55 2413.66 981.09C2395.86 990.36 2383.78 1006.25 2371.58 1021.68C2366.63 1027.94 2361.73 1034.24 2357.02 1040.68C2355.04 1043.39 2353.1 1044.63 2349.52 1043.91C2324.17 1038.82 2298.68 1039.08 2273.14 1042.39C2271.52 1042.6 2269.81 1042.83 2267.5 1041.14C2270.86 1029.52 2273.82 1017.41 2275.91 1005.1C2279.12 986.12 2281.11 967 2283.34 947.89C2286.04 924.77 2286.6 901.53 2288.57 878.38C2289.89 862.85 2289.3 847.14 2290.9 831.57C2291.6 824.83 2290.08 818.3 2288.82 811.79C2286.7 800.83 2278.95 794.74 2269.18 791C2261.74 788.15 2254.07 785.68 2246.15 784.68C2240.59 783.98 2238.93 781.3 2238.98 776.08C2239.14 758.08 2239.05 740.09 2239 722.09C2238.99 718.77 2239.07 715.38 2238.49 712.14C2235.26 694.04 2227.64 686.04 2209.21 683.02C2154.16 674 2100.07 660.26 2045.24 650.16C2042.96 649.74 2040.75 648.89 2038.46 648.53C2034.91 647.96 2033.39 645.93 2033.08 642.46C2031.76 627.92 2030.35 613.38 2028.95 598.85C2027.14 580.03 2025.28 561.21 2023.49 542.39C2022.4 530.93 2024.94 520.41 2032.87 511.87C2052.42 490.82 2075.66 475.02 2102.35 464.37C2126.41 454.77 2151.44 450.45 2177.32 450.4C2199.29 450.36 2221.15 451.76 2242.96 454.25C2243.29 454.29 2243.63 454.31 2243.96 454.3C2264.28 453.75 2284.45 457.14 2304.79 456.42C2326.84 455.64 2347.63 451.16 2365.61 437.44C2367.18 436.24 2369.06 435.46 2370.79 434.49C2374.67 434.25 2376.65 437.2 2379.03 439.46C2391.09 450.94 2401.94 463.47 2412.18 476.59C2432.06 502.08 2449.36 529.21 2463.71 558.15C2471.53 573.92 2477.78 590.4 2484.18 606.81C2490.81 623.82 2498.01 640.6 2504.58 657.63C2514.15 682.45 2520.52 708.11 2525.31 734.29C2528.59 752.22 2530 770.35 2532.94 788.29C2532.99 788.62 2532.98 788.95 2532.99 789.29C2533.34 813.54 2537.18 837.81 2534.74 861.99C2532.65 882.73 2532.13 903.56 2529.64 924.32C2526.88 947.36 2523.14 970.18 2518.76 992.88C2514.18 1016.61 2508.28 1040.11 2501.14 1063.24C2499.96 1067.05 2498.4 1070.78 2499.29 1074.91L2499.23 1074.66C2497.77 1075.16 2497.66 1075.8 2499.03 1076.59C2495.52 1082.25 2490.2 1086.34 2486.3 1091.76C2467.99 1117.16 2461.38 1146.17 2459.06 1176.63C2455.84 1179.29 2454.78 1183.27 2453.09 1186.79C2436.31 1221.75 2417.38 1255.47 2395.27 1287.36C2393.35 1290.06 2391.35 1292.7 2391.22 1296.21Z" fill="#93D5FF"/>
<path d="M1807.36 298.76C1802.66 305.43 1795.65 309.6 1789.58 314.7C1771.51 329.89 1754.96 346.83 1735.84 360.79C1721.29 371.41 1705.71 380.33 1689.94 388.93C1661 404.73 1631.46 419.37 1601.85 433.87C1575.8 446.63 1551.04 461.6 1526.12 476.32C1485.35 500.41 1443.36 521.99 1397.88 535.87C1368.96 544.7 1339.4 551 1309.69 556.53C1278.06 562.41 1246.23 566.94 1214.28 570.83C1190.91 573.68 1167.51 576.26 1144.09 578.7C1122.33 580.97 1100.66 584.24 1078.88 586.2C1055.07 588.34 1031.46 591.88 1007.77 594.88C975.01 599.03 943.33 607.79 912.31 618.96C896.04 624.82 879.88 630.97 863.72 637.1C856.55 639.82 849.29 642.22 841.8 643.78C833.13 645.58 824.52 644.54 816.2 641.88C794.94 635.1 773.21 630.2 751.18 627.24C728.47 624.19 705.64 623.8 682.59 625.77C648.55 628.68 617.11 639.43 586.12 652.72C576.12 657.01 565.87 661.11 554.83 662.29C554.98 659.25 557.02 657.8 559.36 656.23C578.43 643.49 597.97 631.56 617.78 620.01C631.32 612.12 645.36 605.28 659.36 598.31C697.28 579.45 736.88 565.23 778.47 557.1C800.2 552.85 822.23 550.14 844.04 546.21C868.13 541.87 892.17 537.22 916.13 532.21C946.26 525.91 976.31 519.25 1006.34 512.52C1064.85 499.4 1123.16 485.42 1181.2 470.36C1227.4 458.38 1273.45 445.79 1319.5 433.25C1369.4 419.67 1419.27 405.99 1469.08 392.07C1507.08 381.45 1544.92 370.23 1582.91 359.57C1625.68 347.57 1668.53 335.88 1711.36 324.08C1741.4 315.8 1771.45 307.56 1801.48 299.25C1803.44 298.73 1805.36 298.53 1807.36 298.76Z" fill="#93D5FF"/>
<path d="M422.87 802.71C442.23 805.61 461.79 806.31 481.26 807.95C490.85 808.76 500.74 809.43 510.16 808C524.03 805.9 537.96 806.65 551.85 805.03C581.23 801.59 610.27 796.78 638.9 789.49C666.3 782.51 693 773.35 719.46 763.41C723.13 762.03 726.71 759.88 730.92 760.5L730.97 760.55C728.84 769.84 722.84 777.21 718.43 785.34C707.03 806.39 695.9 827.63 682.34 847.41C671.81 862.77 660.44 877.35 645.89 889.43C626.86 905.24 604.89 913.79 581.08 918.37C540.32 926.23 500.05 936.19 460.12 947.39C438.42 953.48 418.68 963.74 403.38 981.04C400.45 957.34 397.93 933.65 398.82 909.67C399.67 886.69 403.15 864.24 410.08 842.35C413.18 832.55 416.1 822.68 420.31 813.23C421.75 810.02 423.44 806.56 422.87 802.71Z" fill="#93D5FF"/>
<path d="M2459.04 1176.59C2461.36 1146.13 2467.98 1117.12 2486.28 1091.72C2490.18 1086.31 2495.5 1082.21 2499.01 1076.55C2499.08 1075.91 2499.14 1075.26 2499.21 1074.62L2499.27 1074.87C2504.58 1071.99 2508.65 1067.48 2513.45 1063.94C2533.5 1049.13 2556.24 1041.73 2580.79 1038.39C2600.27 1035.74 2619.37 1036.96 2638.2 1041.59C2683.89 1052.82 2714.94 1081.22 2732.58 1124.47C2739.42 1141.23 2742.12 1158.88 2743.49 1176.96C2745.47 1203.24 2743.01 1228.94 2734.12 1253.57C2716.84 1301.45 2682.99 1330.45 2632.4 1338.66C2600.9 1343.77 2570.06 1341.29 2540.48 1328.33C2507.32 1313.8 2484.76 1289.16 2471.32 1255.87C2463.13 1235.59 2459.29 1214.43 2459.21 1192.57C2459.19 1187.25 2459.1 1181.92 2459.04 1176.59ZM2520.89 1135.34C2521.2 1144.3 2521.37 1153.21 2522.52 1162.2C2527 1197.39 2535.6 1231.44 2549.21 1264.18C2556.55 1281.82 2566.02 1298.24 2579.58 1311.95C2611.4 1344.12 2661.32 1334.79 2675.57 1289.17C2683.11 1265.03 2683.57 1240.62 2680.6 1216.14C2676.62 1183.39 2669.35 1151.25 2657.28 1120.41C2648.96 1099.16 2638.6 1078.99 2621.12 1063.64C2602.45 1047.24 2581.06 1043.11 2557.99 1052.68C2543.35 1058.76 2534.63 1070.97 2528.96 1085.43C2522.68 1101.47 2520.15 1118.15 2520.89 1135.34Z" fill="#1B52B8"/>
<path d="M1267.17 1304.48C1261.54 1293.54 1256.85 1282.34 1254.32 1270.15C1252.73 1262.5 1252.84 1254.93 1252.82 1247.32C1252.71 1192.7 1252.76 1138.07 1252.75 1083.45C1252.75 1080.12 1252.76 1076.79 1252.75 1073.46C1252.7 1062.55 1252.7 1062.53 1241.86 1062.5C1228.2 1062.47 1214.55 1062.48 1200.89 1062.46C1200.23 1062.46 1199.58 1062.26 1198.93 1062.15C1199.55 1060.97 1198.83 1062.53 1198.59 1061.22C1198.54 1060.93 1198.54 1060.48 1198.71 1060.34C1202.27 1057.38 1205.73 1054.29 1209.46 1051.55C1249.83 1021.85 1290.25 992.2 1330.51 962.65C1334.45 965.33 1333.07 968.62 1333.07 971.35C1333.12 991 1332.92 1010.65 1332.93 1030.3C1332.94 1038.6 1333.08 1038.75 1341.24 1038.8C1359.56 1038.9 1377.88 1038.79 1396.19 1038.88C1399.39 1038.9 1402.77 1038.03 1405.74 1039.83C1406.67 1043.05 1404.12 1044.16 1402.57 1045.62C1400.15 1047.88 1396.83 1049.39 1394.94 1051.98C1387.78 1061.83 1378.02 1063.45 1366.77 1062.64C1357.49 1061.97 1348.13 1062.61 1338.8 1062.48C1334.56 1062.42 1332.62 1064.18 1332.88 1068.41C1332.96 1069.74 1332.87 1071.07 1332.87 1072.41C1332.88 1127.7 1332.85 1182.99 1332.92 1238.28C1332.94 1254.32 1337.03 1269.24 1346.75 1282.21C1359.61 1299.36 1383.8 1308.67 1403.28 1298.43C1405.55 1297.23 1408.26 1295.11 1410.36 1298.14C1412.45 1301.16 1410.35 1303.84 1408.3 1306.12C1397.5 1318.09 1385.77 1328.78 1370.09 1334.08C1368.24 1334.7 1366.09 1334.81 1364.97 1336.81C1359.75 1337.53 1354.52 1338.15 1349.32 1338.99C1328.23 1342.38 1308.61 1338.34 1290.44 1327.25C1280.97 1321.44 1274.17 1312.85 1267.17 1304.48Z" fill="#1B52B8"/>
<path d="M1173.12 1282.63C1173.94 1282.12 1174.76 1281.6 1175.59 1281.1C1178.46 1279.37 1180.01 1273.88 1183.9 1275.95C1187.35 1277.79 1187.66 1282.5 1186.97 1286.59C1163.22 1310.69 1136.49 1330.5 1102.75 1337.32C1058.16 1346.34 1015.99 1340.98 979.54 1310.74C964.96 1298.65 954.1 1283.66 945.63 1266.86C944.43 1264.49 943.72 1261.89 941.62 1260.07C939.13 1248.39 934.45 1237.34 932.56 1225.43C929.32 1204.97 928.07 1184.69 930.56 1163.97C932.85 1144.93 936.88 1126.52 945.63 1109.53C965 1071.91 996.08 1049.54 1037.25 1040.56C1046.73 1038.49 1056.42 1037.4 1065.87 1037.14C1098.77 1036.23 1128.83 1045.27 1155.17 1065.74C1171.24 1078.23 1184.02 1093.22 1192.65 1111.69C1196.72 1120.4 1196.35 1121.17 1187.38 1124.65C1140.88 1142.71 1094.42 1160.84 1047.93 1178.94C1034.3 1184.25 1020.66 1189.56 1006.98 1194.75C1002.86 1196.31 999.66 1198.28 1000.97 1203.39C1006.77 1226.05 1014.58 1247.84 1028.56 1266.95C1032.95 1275.72 1039.75 1282.55 1046.65 1289.26C1085.62 1327.12 1137.82 1319.52 1173.12 1282.63ZM995.62 1181.56C999.73 1182.04 1002.69 1180.37 1005.74 1179.23C1014.45 1175.98 1023.11 1172.6 1031.81 1169.31C1061.94 1157.93 1092.09 1146.62 1122.19 1135.16C1130 1132.19 1130.22 1131.21 1127.41 1123.45C1119.61 1101.93 1107.88 1082.71 1092.7 1065.71C1077.84 1049.05 1053.6 1043.56 1031.39 1051.31C1014.92 1057.06 1004.79 1069.5 998.91 1085.56C987.29 1117.23 989.76 1149.33 995.62 1181.56Z" fill="#1B52B8"/>
<path d="M558.7 1176.38C572.81 1160.86 588.95 1147.53 604.44 1133.49C620 1119.38 636.73 1106.93 654.71 1096.1C666.31 1089.11 666.88 1088.86 672.97 1101.29C682.33 1120.38 691.1 1139.76 699.96 1159.09C709.1 1179.02 718 1199.05 727.11 1218.99C729.05 1223.23 731.23 1227.35 731.63 1232.1C725.89 1232.91 720.51 1230.88 715.16 1229.53C671.52 1218.56 628.75 1204.9 587.2 1187.56C577.76 1183.63 569.02 1178.02 558.7 1176.38Z" fill="#93D5FF"/>
<path d="M454.92 1086.78C460.53 1081.41 467.91 1078.9 474.49 1075.22C496.78 1062.76 519.47 1051 542.04 1039.05C545.78 1037.07 549.64 1034.33 553.76 1038.61C555.77 1040.69 557 1042.7 555.26 1045.61C536.9 1076.28 521.43 1108.78 497.86 1136.14C497.66 1136.37 497.28 1136.46 496.99 1136.61C497 1132.41 493.69 1130.36 491.2 1127.84C482.87 1119.41 474.38 1111.12 466.11 1102.63C461.55 1097.97 457.11 1093.15 454.92 1086.78Z" fill="#93D5FF"/>
<path d="M2327.68 1208.88C2307.85 1209.28 2294.94 1198.14 2283.69 1185.21C2266.09 1164.96 2255.65 1140.97 2250.18 1114.78C2247.98 1104.22 2247.83 1093.39 2249.59 1082.98C2253.86 1057.76 2279.16 1045.74 2302.39 1057.27C2316.58 1064.32 2326.71 1075.85 2334.92 1088.91C2348.12 1109.89 2357.97 1132.35 2362.15 1157.02C2363.85 1167.06 2363.26 1176.92 2359.92 1186.52C2356.09 1197.56 2344.02 1210.38 2327.68 1208.88Z" fill="#93D5FF"/>
<path d="M822.41 1237.53C819 1236.56 818.63 1233.95 817.81 1231.91C804.72 1199.53 791.8 1167.07 778.65 1134.71C773.39 1121.77 767.2 1109.19 764.24 1095.42C763.96 1094.12 763.26 1092.87 763.22 1091.58C763.06 1086.93 762.1 1082 763.3 1077.69C764.98 1071.63 771.4 1074.5 775.46 1073.75C791.1 1070.86 806.9 1068.72 822.71 1066.9C846.89 1064.13 870.46 1058.67 893.82 1052.11C895.05 1051.76 896.21 1050.82 898.67 1052.49C869.14 1112.27 846.76 1175.33 822.41 1237.53Z" fill="#93D5FF"/>
<path d="M730.92 760.5C731.2 760.22 731.48 759.94 731.76 759.66C731.73 759.85 731.77 760.11 731.66 760.21C731.48 760.38 731.21 760.44 730.97 760.55L730.92 760.5Z" fill="#FFF8D2"/>
<path d="M1932.6 1083.57C1953.57 1065.4 1976.42 1051.4 2002.98 1044.4C2025.79 1038.38 2048.53 1037.13 2071.36 1045.46C2095.11 1054.13 2108.56 1071.16 2114.81 1094.96C2116.78 1102.47 2117.18 1110.04 2117.19 1117.71C2117.2 1162.03 2117.14 1206.34 2117.26 1250.66C2117.3 1263.3 2118.61 1275.93 2121.5 1288.19C2125.47 1305.02 2134.78 1317.83 2152.23 1323.12C2154.45 1323.79 2156.74 1324.32 2158.87 1325.21C2161.15 1326.16 2160.9 1328.37 2160.85 1330.36C2160.79 1332.65 2159.72 1334.22 2157.3 1334.3C2153.64 1334.42 2149.94 1334.69 2146.32 1334.33C2113.42 1331.08 2080.44 1333.35 2047.51 1332.78C2035.88 1332.58 2024.23 1332.38 2012.66 1334.3C2009.75 1334.78 2006.67 1334.42 2003.69 1334.23C2001.48 1334.09 2000.06 1332.71 1999.6 1330.51C1999.1 1328.08 1999.21 1325.74 2001.76 1324.49C2003.54 1323.61 2005.5 1323.12 2007.33 1322.34C2023.32 1315.51 2032.42 1303.58 2035.21 1286.28C2038.53 1265.72 2036.15 1245.07 2037.28 1224.5C2038.78 1197.24 2039.59 1169.96 2038.8 1142.68C2038.31 1125.66 2034.64 1109.23 2026.79 1093.74C2018.63 1077.66 1999.18 1071.44 1985.6 1073.05C1967.27 1075.23 1951.48 1083.62 1936.67 1094.16C1932.52 1097.12 1930.93 1100.85 1930.94 1106.05C1931.06 1160.69 1930.64 1215.34 1931.15 1269.98C1931.31 1286.8 1935.46 1302.95 1948.49 1315.34C1952.45 1319.11 1956.82 1321.85 1962.04 1323.44C1964.57 1324.21 1967.04 1325.4 1967.02 1328.84C1967.01 1331.76 1966.63 1334.29 1962.95 1334.37C1959.62 1334.44 1956.24 1334.74 1952.96 1334.32C1929.4 1331.29 1905.74 1333.22 1882.13 1332.78C1867.14 1332.5 1852.14 1332.91 1837.15 1332.78C1829.14 1332.71 1821.36 1335.22 1813.31 1334.48C1810.26 1334.2 1807.21 1334.56 1806.87 1330.17C1806.57 1326.35 1808.59 1325.02 1811.86 1324.03C1819.54 1321.72 1826.92 1318.7 1833.14 1313.41C1845.38 1303.01 1848.64 1288.63 1848.83 1273.84C1849.37 1231.53 1849.21 1189.21 1849 1146.9C1848.91 1128.53 1836.2 1114.95 1816.32 1110.93C1814.7 1110.6 1813.01 1110.59 1811.35 1110.46C1809.21 1110.29 1807.33 1109.65 1807.04 1107.2C1806.77 1104.91 1806.35 1102.36 1808.8 1100.91C1811.08 1099.56 1813.48 1098.33 1815.95 1097.37C1851.84 1083.36 1884.78 1064.13 1915.6 1041.15C1918.41 1039.05 1920.91 1035.91 1925.28 1037.79C1929.49 1039.6 1931.21 1042.47 1931.1 1047.12C1930.85 1057.44 1931 1067.78 1931.05 1078.11C1931.08 1079.63 1930.59 1081.34 1932.6 1083.57Z" fill="#1B52B8"/>
<path d="M1412.67 1061.58C1423.22 1051.04 1540.44 965.79 1547.68 963.4C1549.73 965.99 1548.92 969.09 1548.84 971.93C1548.39 987.88 1549.94 1003.88 1547.35 1019.78C1546.71 1023.68 1547.4 1027.77 1547.15 1031.76C1546.84 1036.8 1548.75 1039.15 1554.02 1038.88C1559 1038.62 1564.01 1038.83 1569.01 1038.83C1582.67 1038.83 1596.33 1038.78 1609.99 1038.87C1613.22 1038.89 1616.7 1037.98 1620.14 1040.92C1617.23 1047.32 1611.09 1050.85 1606.35 1055.57C1600.92 1060.98 1594.55 1063.2 1586.58 1062.67C1575.63 1061.94 1564.6 1062.62 1553.61 1062.44C1548.92 1062.36 1546.8 1064.18 1547.16 1068.88C1547.28 1070.54 1547.17 1072.21 1547.17 1073.88C1547.17 1126.52 1547.04 1179.17 1547.25 1231.81C1547.31 1247.57 1549.67 1263.16 1558.21 1276.79C1568.14 1292.64 1582.2 1302.31 1601.66 1302.55C1606.81 1302.61 1611.47 1301.02 1616.09 1299.09C1617.93 1298.32 1619.71 1297.38 1621.59 1296.74C1623.28 1296.16 1625.01 1296.53 1626.1 1297.96C1627.24 1299.45 1626.91 1301.16 1625.77 1302.55C1621.34 1307.94 1617.38 1313.67 1611.85 1318.15C1596.99 1330.18 1580.56 1337.59 1561.16 1339.24C1539.47 1341.08 1519.57 1337.55 1501.81 1324.53C1482.41 1310.31 1473.08 1290.34 1468.89 1267.27C1467.03 1257.02 1467.05 1246.77 1467.05 1236.46C1467.04 1183.48 1467.05 1130.5 1467.05 1077.53C1467.05 1075.2 1467.1 1072.86 1467.04 1070.53C1466.83 1062.75 1466.81 1062.59 1459.27 1062.52C1446.28 1062.39 1433.28 1062.54 1420.29 1062.43C1417.8 1062.42 1415.1 1063.31 1412.67 1061.58Z" fill="#1B52B8"/>
<path d="M1759.33 1054.72C1759.22 1121.31 1759.18 1187.89 1758.95 1254.48C1758.91 1266.2 1760.19 1277.7 1763.05 1289C1766.98 1304.5 1774.29 1317.48 1790.41 1323.37C1791.65 1323.82 1792.87 1324.42 1794.01 1325.09C1796.31 1326.45 1797.06 1328.55 1796.36 1331.07C1795.75 1333.29 1793.98 1334.27 1791.84 1334.28C1787.52 1334.31 1783.07 1334.75 1778.9 1333.9C1773.92 1332.89 1768.99 1332.8 1764.01 1332.8C1731.7 1332.78 1699.38 1332.69 1667.07 1332.87C1658.79 1332.92 1650.52 1333.98 1642.23 1334.35C1639.44 1334.48 1635.93 1335.3 1635.24 1330.83C1634.58 1326.62 1636.58 1325.14 1640.54 1324.18C1647.33 1322.54 1653.74 1319.88 1659.38 1315.41C1668.71 1308.02 1674.24 1298.39 1676.4 1286.93C1677.75 1279.78 1678.69 1272.44 1678.73 1265.18C1678.96 1227.87 1678.96 1190.55 1678.78 1153.24C1678.72 1140.62 1675.99 1128.88 1665.64 1120.08C1659.25 1114.65 1651.43 1113.07 1643.84 1110.76C1642.59 1110.38 1641.2 1110.49 1639.88 1110.31C1637.28 1109.96 1635.67 1108.58 1635.27 1105.87C1634.81 1102.72 1636.22 1100.79 1639.06 1099.7C1639.99 1099.34 1640.94 1099.02 1641.86 1098.65C1678.81 1083.84 1713.28 1064.6 1745.27 1040.9C1748.11 1038.79 1750.25 1035.56 1754.76 1038.22C1758.99 1040.72 1761.14 1043.81 1760.77 1048.71C1760.62 1050.7 1760.75 1052.71 1760.75 1054.7C1760.29 1054.72 1759.81 1054.72 1759.33 1054.72Z" fill="#1B52B8"/>
<path d="M1712.93 912.3C1731.85 912.08 1746.86 917.22 1756.67 933.08C1770.57 955.55 1765.39 998.2 1725.46 1004.76C1706.81 1007.83 1690.62 1004.04 1677.45 990C1670.84 982.95 1667.25 974.49 1666.95 964.85C1666.75 958.24 1666.18 951.57 1667.81 945.01C1672.49 926.16 1689.97 910.61 1712.93 912.3Z" fill="#1B52B8"/>
<path d="M2499.21 1074.63C2499.14 1075.27 2499.08 1075.92 2499.01 1076.56C2497.64 1075.76 2497.76 1075.12 2499.21 1074.63Z" fill="white"/>
<path d="M995.62 1181.56C989.76 1149.33 987.29 1117.23 998.91 1085.56C1004.8 1069.51 1014.92 1057.06 1031.39 1051.31C1053.59 1043.56 1077.83 1049.06 1092.7 1065.71C1107.87 1082.71 1119.6 1101.94 1127.41 1123.45C1130.22 1131.21 1130 1132.18 1122.19 1135.16C1092.09 1146.61 1061.94 1157.93 1031.81 1169.31C1023.11 1172.6 1014.45 1175.97 1005.74 1179.23C1002.68 1180.37 999.72 1182.04 995.62 1181.56Z" fill="#93D5FF"/>
</svg>
